<?xml version="1.0" encoding="UTF-8" standalone="no"?>
<svg width="287px" height="60px" viewBox="0 0 287 60" version="1.1" xmlns="http://www.w3.org/2000/svg" xmlns:xlink="http://www.w3.org/1999/xlink">
    <!-- Generator: Sketch 40.3 (33839) - http://www.bohemiancoding.com/sketch -->
    <title>lockup_remixer_icon_horizontal_dark_2</title>
    <desc>Created with Sketch.</desc>
    <defs></defs>
    <g id="Page-1" stroke="none" stroke-width="1" fill="none" fill-rule="evenodd">
        <g id="lockup_remixer_icon_horizontal_dark_2">
            <g id="Group">
                <rect id="Rectangle-path" x="0.9" y="0.8" width="286.2" height="58.4"></rect>
                <g>
                    <polygon id="Shape" fill="#212121" points="59.3 0.8 30.1 15.4 30.1 44.6 59.3 59.2"></polygon>
                    <rect id="Rectangle-path" x="0.9" y="0.8" width="58.4" height="58.4"></rect>
                    <polygon id="Shape" fill="#EA80FC" points="0.9 0.8 59.3 30 0.9 59.2"></polygon>
                    <polygon id="Shape" fill="#7C4DFF" points="59.3 30 30.1 44.6 0.9 30 30.1 15.4"></polygon>
                </g>
                <g transform="translate(85.000000, 14.000000)" id="Shape" fill="#212121">
                    <path d="M11.6,21.1 L4.6,21.1 L4.6,35.5 L0.1,35.5 L0.1,0.4 L10.4,0.4 C12.1,0.4 13.6,0.7 15,1.1 C16.4,1.5 17.7,2.2 18.8,3 C19.9,3.8 20.7,4.9 21.4,6.3 C22,7.6 22.3,9.1 22.3,10.9 C22.3,12 22.1,13.1 21.8,14 C21.5,14.9 21,15.8 20.4,16.6 C19.8,17.4 19.1,18.1 18.3,18.7 C17.5,19.3 16.6,19.8 15.6,20.2 L23.1,35.2 L23.1,35.5 L18.4,35.5 L11.6,21.1 L11.6,21.1 Z M4.6,17.5 L10.6,17.5 C11.6,17.5 12.5,17.3 13.4,17 C14.3,16.7 15.1,16.3 15.7,15.7 C16.3,15.1 16.9,14.4 17.3,13.6 C17.7,12.8 17.9,11.9 17.9,10.8 C17.9,9.7 17.7,8.7 17.3,7.8 C16.9,6.9 16.4,6.3 15.8,5.7 C15.2,5.1 14.3,4.7 13.4,4.4 C12.5,4.1 11.5,4 10.4,4 L4.5,4 L4.6,17.5 L4.6,17.5 L4.6,17.5 Z"></path>
                    <polygon points="49 19.2 34.3 19.2 34.3 31.6 51.4 31.6 51.4 35.4 29.8 35.4 29.8 0.3 51.2 0.3 51.2 4.1 34.3 4.1 34.3 15.4 49 15.4 49 19.2"></polygon>
                    <polygon points="64.8 0.3 70.5 17.9 76.7 0.3 82.3 0.3 82.3 35.4 78 35.4 78 21.4 78.4 6.7 71.9 25.6 69.3 25.6 63.3 7.2 63.7 21.4 63.7 35.4 59.4 35.4 59.4 0.3"></polygon>
                    <polygon points="90.1 0.3 111.3 0.3 111.3 4.2 102.9 4.2 102.9 31.6 111.3 31.6 111.3 35.5 90.1 35.5 90.1 31.6 98.3 31.6 98.3 4.2 90.1 4.2"></polygon>
                    <polygon points="130.1 14.1 137.7 0.3 143 0.3 132.8 17.7 143.3 35.4 138 35.4 130.2 21.3 122.4 35.4 117.1 35.4 127.6 17.7 117.4 0.3 122.6 0.3"></polygon>
                    <polygon points="168.5 19.2 153.8 19.2 153.8 31.6 170.9 31.6 170.9 35.4 149.3 35.4 149.3 0.3 170.7 0.3 170.7 4.1 153.8 4.1 153.8 15.4 168.5 15.4 168.5 19.2"></polygon>
                    <path d="M190.2,21.1 L183.2,21.1 L183.2,35.5 L178.7,35.5 L178.7,0.4 L189,0.4 C190.7,0.4 192.2,0.7 193.6,1.1 C195,1.5 196.3,2.2 197.4,3 C198.5,3.8 199.3,4.9 200,6.3 C200.6,7.6 200.9,9.1 200.9,10.9 C200.9,12 200.7,13.1 200.4,14 C200.1,14.9 199.6,15.8 199,16.6 C198.4,17.4 197.7,18.1 196.9,18.7 C196.1,19.3 195.2,19.8 194.2,20.2 L201.7,35.2 L201.7,35.5 L197,35.5 L190.2,21.1 L190.2,21.1 Z M183.2,17.5 L189.2,17.5 C190.2,17.5 191.1,17.3 192,17 C192.9,16.7 193.7,16.3 194.3,15.7 C194.9,15.1 195.5,14.4 195.9,13.6 C196.3,12.8 196.5,11.9 196.5,10.8 C196.5,9.7 196.3,8.7 195.9,7.8 C195.5,6.9 195,6.3 194.4,5.7 C193.8,5.1 192.9,4.7 192,4.4 C191.1,4.1 190.1,4 189,4 L183.1,4 L183.2,17.5 L183.2,17.5 L183.2,17.5 Z"></path>
                </g>
            </g>
        </g>
    </g>
</svg>